<?xml version="1.0" encoding="UTF-8" standalone="no"?>
<!DOCTYPE svg PUBLIC "-//W3C//DTD SVG 1.1//EN" "http://www.w3.org/Graphics/SVG/1.1/DTD/svg11.dtd">
<svg width="100%" height="100%" viewBox="0 0 800 800" version="1.1" xmlns="http://www.w3.org/2000/svg" xmlns:xlink="http://www.w3.org/1999/xlink" xml:space="preserve" style="fill-rule:evenodd;clip-rule:evenodd;stroke-linejoin:round;stroke-miterlimit:1.41421;">
    <g transform="matrix(6.84314,0,0,6.71221,-1590.13,-3048.55)">
        <rect x="237.617" y="471.365" width="50.209" height="10.131" style="fill:rgb(255,8,68);"/>
    </g>
    <g transform="matrix(6.84314,0,0,6.71221,-1205.55,-2547.25)">
        <rect x="237.617" y="471.365" width="50.209" height="10.131" style="fill:rgb(255,8,68);"/>
    </g>
    <g transform="matrix(6.84314,0,0,6.71221,-1590.13,-2832.31)">
        <rect x="237.617" y="471.365" width="50.209" height="10.131" style="fill:rgb(255,8,68);"/>
    </g>
    <g transform="matrix(6.84314,0,0,6.71221,-1205.55,-2764.31)">
        <rect x="237.617" y="471.365" width="50.209" height="10.131" style="fill:rgb(255,8,68);"/>
    </g>
    <g transform="matrix(9.52349,0,0,6.71221,-2227.03,-2940.38)">
        <rect x="237.617" y="471.365" width="50.209" height="10.131" style="fill:rgb(255,8,68);"/>
    </g>
    <g transform="matrix(9.52349,0,0,6.71221,-1977.03,-2655.75)">
        <rect x="237.617" y="471.365" width="50.209" height="10.131" style="fill:rgb(255,8,68);"/>
    </g>
</svg>
